<svg width="30" height="30" viewBox="0 0 30 30" fill="none" xmlns="http://www.w3.org/2000/svg">
	<rect width="30" height="30" rx="15" fill="#FF1952"/>
	<path d="M3 14.25C3 13.6287 3.50368 13.125 4.125 13.125C4.74632 13.125 5.25 13.6287 5.25 14.25V15.75C5.25 16.3713 4.74632 16.875 4.125 16.875C3.50368 16.875 3 16.3713 3 15.75V14.25Z" fill="white"/>
	<path d="M6.625 6.75C6.625 6.12868 7.12868 5.625 7.75 5.625C8.37132 5.625 8.875 6.12868 8.875 6.75V23.25C8.875 23.8713 8.37132 24.375 7.75 24.375C7.12868 24.375 6.625 23.8713 6.625 23.25V6.75Z" fill="white"/>
	<path d="M10.25 8.625C10.25 8.00368 10.7537 7.5 11.375 7.5C11.9963 7.5 12.5 8.00368 12.5 8.625V13.875C12.5 14.4963 11.9963 15 11.375 15C10.7537 15 10.25 14.4963 10.25 13.875V8.625Z" fill="white"/>
	<path d="M13.875 12.375C13.875 11.7537 14.3787 11.25 15 11.25C15.6213 11.25 16.125 11.7537 16.125 12.375V17.625C16.125 18.2463 15.6213 18.75 15 18.75C14.3787 18.75 13.875 18.2463 13.875 17.625V12.375Z" fill="white"/>
	<path d="M17.5 8.625C17.5 8.00368 18.0037 7.5 18.625 7.5C19.2463 7.5 19.75 8.00368 19.75 8.625V13.875C19.75 14.4963 19.2463 15 18.625 15C18.0037 15 17.5 14.4963 17.5 13.875V8.625Z" fill="white"/>
	<path d="M21.125 8.625C21.125 8.00368 21.6287 7.5 22.25 7.5C22.8713 7.5 23.375 8.00368 23.375 8.625V21.375C23.375 21.9963 22.8713 22.5 22.25 22.5C21.6287 22.5 21.125 21.9963 21.125 21.375V8.625Z" fill="white"/>
	<path d="M24.75 14.25C24.75 13.6287 25.2537 13.125 25.875 13.125C26.4963 13.125 27 13.6287 27 14.25V15.75C27 16.3713 26.4963 16.875 25.875 16.875C25.2537 16.875 24.75 16.3713 24.75 15.75V14.25Z" fill="white"/>
</svg>
