<svg width="120" height="120" viewBox="0 0 120 120" fill="none" xmlns="http://www.w3.org/2000/svg">
	<path d="M12 57C12 54.5147 14.0147 52.5 16.5 52.5C18.9853 52.5 21 54.5147 21 57V63C21 65.4853 18.9853 67.5 16.5 67.5C14.0147 67.5 12 65.4853 12 63V57Z" fill="#FF1952"/>
	<path d="M26.5 27C26.5 24.5147 28.5147 22.5 31 22.5C33.4853 22.5 35.5 24.5147 35.5 27V93C35.5 95.4853 33.4853 97.5 31 97.5C28.5147 97.5 26.5 95.4853 26.5 93V27Z" fill="#FF1952"/>
	<path d="M41 34.5C41 32.0147 43.0147 30 45.5 30C47.9853 30 50 32.0147 50 34.5V55.5C50 57.9853 47.9853 60 45.5 60C43.0147 60 41 57.9853 41 55.5V34.5Z" fill="#FF1952"/>
	<path d="M55.5 49.5C55.5 47.0147 57.5147 45 60 45C62.4853 45 64.5 47.0147 64.5 49.5V70.5C64.5 72.9853 62.4853 75 60 75C57.5147 75 55.5 72.9853 55.5 70.5V49.5Z" fill="#FF1952"/>
	<path d="M70 34.5C70 32.0147 72.0147 30 74.5 30C76.9853 30 79 32.0147 79 34.5V55.5C79 57.9853 76.9853 60 74.5 60C72.0147 60 70 57.9853 70 55.5V34.5Z" fill="#FF1952"/>
	<path d="M84.5 34.5C84.5 32.0147 86.5147 30 89 30C91.4853 30 93.5 32.0147 93.5 34.5V85.5C93.5 87.9853 91.4853 90 89 90C86.5147 90 84.5 87.9853 84.5 85.5V34.5Z" fill="#FF1952"/>
	<path d="M99 57C99 54.5147 101.015 52.5 103.5 52.5C105.985 52.5 108 54.5147 108 57V63C108 65.4853 105.985 67.5 103.5 67.5C101.015 67.5 99 65.4853 99 63V57Z" fill="#FF1952"/>
</svg>