<svg width="20" height="20" viewBox="0 0 20 20" fill="none" xmlns="http://www.w3.org/2000/svg">
	<path d="M12.6194 17.6557H2.34447V2.34468H12.6198C12.8476 2.34468 13.0324 2.15983 13.0324 1.93206V0.412614C13.0324 0.184851 12.8476 0 12.6198 0H0.412614C0.184851 0 0 0.184851 0 0.412614V19.5874C0 19.8152 0.184851 20 0.412614 20H12.6194C12.8473 20 13.032 19.8152 13.032 19.5874V18.0684C13.032 17.8402 12.8475 17.6557 12.6194 17.6557Z" fill="white" fill-opacity="0.75"/>
	<path d="M19.8784 9.71837L14.3211 4.16609C14.1663 4.0112 13.8922 4.01141 13.7374 4.16609L12.419 5.48363C12.2578 5.64471 12.2578 5.90582 12.419 6.0669L14.9291 8.57533H4.06284C3.83495 8.57533 3.65 8.76013 3.65 8.98783V11.0322C3.65 11.2599 3.83495 11.4447 4.06284 11.4447H14.9297L12.4196 13.9531C12.2584 14.1142 12.2584 14.3753 12.4196 14.5364L13.738 15.8541C13.8154 15.9315 13.9207 15.975 14.0299 15.975C14.1395 15.975 14.2444 15.9315 14.3218 15.8541L19.879 10.3019C19.9564 10.2245 20 10.1193 20 10.0102C19.9998 9.90049 19.9558 9.79572 19.8784 9.71837Z" fill="white" fill-opacity="0.75"/>
</svg>