<svg width="30" height="30" viewBox="0 0 30 30" fill="none" xmlns="http://www.w3.org/2000/svg">
	<path fill-rule="evenodd" clip-rule="evenodd" d="M25 23.1771L23.586 24.5238L19.343 20.4838L20.757 19.1362L25 23.1771ZM13 18.8095C9.69199 18.8095 7.00001 16.2467 7.00001 13.0952C7.00001 9.94476 9.69199 7.38095 13 7.38095C16.308 7.38095 19 9.94476 19 13.0952C19 16.2467 16.308 18.8095 13 18.8095ZM13 5.47619C8.58199 5.47619 5 8.88762 5 13.0952C5 17.3029 8.58199 20.7143 13 20.7143C17.418 20.7143 21 17.3029 21 13.0952C21 8.88762 17.418 5.47619 13 5.47619Z" fill="white"/>
</svg>