<svg width="30" height="30" viewBox="0 0 30 30" fill="none" xmlns="http://www.w3.org/2000/svg">
	<path fill-rule="evenodd" clip-rule="evenodd" d="M30 15C30 23.2842 23.2842 30 15 30C6.71572 30 0 23.2842 0 15C0 6.71572 6.71572 0 15 0C23.2842 0 30 6.71572 30 15ZM15 27.75C17.6761 27.75 20.1597 26.9256 22.2105 25.5168C23.1162 24.8946 23.5034 23.7093 22.9767 22.7448C21.885 20.7455 19.6355 19.5 15 19.5C10.3646 19.5 8.11501 20.7453 7.02328 22.7448C6.49663 23.7093 6.88372 24.8945 7.7895 25.5167C9.84035 26.9255 12.3238 27.75 15 27.75ZM19.5 10.5C19.5 12.9853 17.4853 15 15 15C12.5148 15 10.5001 12.9853 10.5001 10.5C10.5001 8.01472 12.5148 6 15 6C17.4853 6 19.5 8.01472 19.5 10.5Z" fill="white"/>
</svg>